<svg width="56" height="56" fill="none" xmlns="http://www.w3.org/2000/svg"><mask id="a" fill="#fff"><path d="M43.58 17.31a4.89 4.89 0 0 0-4.89-4.89h-2.222a4.889 4.889 0 0 1-3.445-1.422l-1.556-1.556a4.89 4.89 0 0 0-6.934 0l-1.556 1.556a4.889 4.889 0 0 1-3.445 1.422H17.31a4.89 4.89 0 0 0-4.89 4.89v2.222c0 1.291-.512 2.53-1.422 3.445l-1.556 1.556a4.89 4.89 0 0 0 0 6.934l1.556 1.556a4.889 4.889 0 0 1 1.422 3.445v2.222a4.89 4.89 0 0 0 4.89 4.89h2.222c1.291 0 2.53.512 3.445 1.422l1.556 1.556a4.89 4.89 0 0 0 6.934 0l1.556-1.556a4.889 4.889 0 0 1 3.445-1.422h2.222a4.89 4.89 0 0 0 4.89-4.89v-2.222c0-1.291.512-2.53 1.422-3.445l1.556-1.556a4.89 4.89 0 0 0 0-6.934l-1.556-1.556a4.889 4.889 0 0 1-1.422-3.445V17.31Z"/></mask><path d="M43.58 17.31a4.89 4.89 0 0 0-4.89-4.89h-2.222a4.889 4.889 0 0 1-3.445-1.422l-1.556-1.556a4.89 4.89 0 0 0-6.934 0l-1.556 1.556a4.889 4.889 0 0 1-3.445 1.422H17.31a4.89 4.89 0 0 0-4.89 4.89v2.222c0 1.291-.512 2.53-1.422 3.445l-1.556 1.556a4.89 4.89 0 0 0 0 6.934l1.556 1.556a4.889 4.889 0 0 1 1.422 3.445v2.222a4.89 4.89 0 0 0 4.89 4.89h2.222c1.291 0 2.53.512 3.445 1.422l1.556 1.556a4.89 4.89 0 0 0 6.934 0l1.556-1.556a4.889 4.889 0 0 1 3.445-1.422h2.222a4.89 4.89 0 0 0 4.89-4.89v-2.222c0-1.291.512-2.53 1.422-3.445l1.556-1.556a4.89 4.89 0 0 0 0-6.934l-1.556-1.556a4.889 4.889 0 0 1-1.422-3.445V17.31Z" fill="#CDD6F9"/><path d="M46.58 17.31a3 3 0 0 1-6 0h6Zm-7.89-4.89v-3 3Zm-2.222 0v3h-.002l.002-3Zm-3.445-1.422-2.115 2.127-.006-.006 2.121-2.121Zm-1.556-1.556-2.121 2.121-.006-.006 2.127-2.115ZM28 8V5v3Zm-3.467 1.442 2.127 2.115-.006.006-2.121-2.121Zm-1.556 1.556 2.122 2.12-.006.007-2.116-2.127Zm-3.445 1.422.002 3h-.002v-3Zm-2.222 0v-3 3Zm-4.89 7.112h3v.002l-3-.002Zm-1.422 3.445 2.127 2.115-.006.006-2.121-2.121Zm-1.556 1.556 2.121 2.121-.006.006-2.115-2.127Zm0 6.934 2.115-2.127.006.006-2.121 2.121Zm1.556 1.556 2.121-2.122.006.006-2.127 2.116Zm1.422 3.445 3-.002v.002h-3Zm7.112 7.112v-3h.002l-.002 3Zm3.445 1.422 2.116-2.127.006.006-2.122 2.121Zm1.556 1.556 2.121-2.121.006.006-2.127 2.115Zm6.934 0-2.127-2.115.006-.006 2.121 2.121Zm1.556-1.556-2.121-2.121.006-.006 2.115 2.127Zm3.445-1.422-.002-3h.002v3Zm7.112-4.89h3-3Zm0-2.222h-3v-.002l3 .002Zm1.422-3.445-2.127-2.116.006-.006 2.121 2.122Zm1.556-1.556-2.121-2.121.006-.006 2.115 2.127ZM48 28h3-3Zm-1.442-3.467-2.115 2.127-.006-.006 2.121-2.121Zm-1.556-1.556-2.12 2.121-.007-.006 2.127-2.115Zm-1.422-3.445-3 .002v-.002h3Zm-3-2.222a3 3 0 1 1 6 0h-6Zm0 0c0-.502-.2-.982-.553-1.336l4.242-4.243a7.89 7.89 0 0 1 2.311 5.579h-6Zm-.553-1.336a1.89 1.89 0 0 0-1.337-.554v-6c2.093 0 4.1.831 5.58 2.31l-4.244 4.243Zm-1.337-.554h-2.222v-6h2.222v6Zm-2.224 0a7.89 7.89 0 0 1-5.558-2.295l4.23-4.255c.354.352.833.55 1.332.55l-.004 6Zm-5.564-2.301-1.556-1.556 4.243-4.242 1.555 1.555-4.242 4.243Zm-1.562-1.562a1.89 1.89 0 0 0-.614-.412l2.303-5.54c.96.4 1.832.984 2.565 1.721l-4.254 4.231Zm-.614-.412A1.888 1.888 0 0 0 28 11V5c1.04 0 2.07.206 3.03.605l-2.304 5.54ZM28 11c-.249 0-.496.05-.726.145l-2.303-5.54A7.89 7.89 0 0 1 28 5v6Zm-.726.145a1.89 1.89 0 0 0-.614.412l-4.254-4.23a7.89 7.89 0 0 1 2.565-1.722l2.303 5.54Zm-.62.418L25.1 13.12l-4.243-4.243 1.556-1.555 4.242 4.242Zm-1.561 1.562a7.89 7.89 0 0 1-5.56 2.295l-.003-6a1.89 1.89 0 0 0 1.332-.55l4.23 4.255Zm-5.56 2.295H17.31v-6h2.222v6Zm-2.223 0c-.501 0-.982.2-1.336.553l-4.243-4.242A7.89 7.89 0 0 1 17.31 9.42v6Zm-1.336.553a1.89 1.89 0 0 0-.554 1.337h-6c0-2.093.831-4.1 2.31-5.58l4.244 4.243Zm-.554 1.337v2.222h-6V17.31h6Zm0 2.224a7.89 7.89 0 0 1-2.295 5.558l-4.255-4.23a1.89 1.89 0 0 0 .55-1.332l6 .004Zm-2.301 5.564-1.556 1.556-4.242-4.242 1.555-1.556 4.243 4.242Zm-1.562 1.562a1.888 1.888 0 0 0-.412.614l-5.54-2.303a7.89 7.89 0 0 1 1.722-2.566l4.23 4.255Zm-.412.614c-.096.23-.145.477-.145.726H5c0-1.04.206-2.07.605-3.03l5.54 2.304ZM11 28c0 .249.05.495.145.726l-5.54 2.303A7.89 7.89 0 0 1 5 28h6Zm.145.726c.096.23.236.438.412.614l-4.23 4.254a7.89 7.89 0 0 1-1.722-2.565l5.54-2.303Zm.418.62L13.12 30.9l-4.243 4.243-1.555-1.556 4.242-4.242Zm1.562 1.561a7.89 7.89 0 0 1 2.295 5.56l-6 .002a1.89 1.89 0 0 0-.55-1.33l4.255-4.232Zm2.295 5.56v2.223h-6v-2.222h6Zm0 2.223c0 .501.2.982.554 1.336L11.73 44.27a7.89 7.89 0 0 1-2.31-5.579h6Zm.554 1.336a1.89 1.89 0 0 0 1.336.554v6a7.89 7.89 0 0 1-5.58-2.31l4.244-4.244Zm1.336.554h2.222v6H17.31v-6Zm2.224 0a7.89 7.89 0 0 1 5.559 2.295l-4.231 4.255a1.89 1.89 0 0 0-1.331-.55l.003-6Zm5.565 2.301 1.555 1.556-4.242 4.242-1.556-1.555 4.242-4.243Zm1.561 1.562c.176.176.384.316.614.412l-2.303 5.54a7.89 7.89 0 0 1-2.565-1.722l4.254-4.23Zm.614.412c.23.096.477.145.726.145v6a7.89 7.89 0 0 1-3.03-.605l2.305-5.54ZM28 45c.25 0 .496-.05.726-.145l2.303 5.54c-.96.4-1.99.605-3.029.605v-6Zm.726-.145c.23-.096.438-.236.614-.412l4.254 4.23a7.89 7.89 0 0 1-2.565 1.722l-2.303-5.54Zm.62-.418 1.556-1.556 4.242 4.243-1.555 1.555-4.243-4.242Zm1.562-1.562a7.89 7.89 0 0 1 5.558-2.295l.004 6a1.89 1.89 0 0 0-1.332.55l-4.23-4.255Zm5.56-2.295h2.222v6h-2.222v-6Zm2.222 0c.502 0 .982-.2 1.337-.554l4.242 4.243a7.89 7.89 0 0 1-5.579 2.31v-6Zm1.337-.554a1.89 1.89 0 0 0 .553-1.336h6a7.89 7.89 0 0 1-2.31 5.58l-4.244-4.244Zm.553-1.336v-2.222h6v2.222h-6Zm0-2.224a7.89 7.89 0 0 1 2.295-5.559l4.255 4.231a1.89 1.89 0 0 0-.55 1.331l-6-.003Zm2.301-5.565 1.556-1.555 4.242 4.242-1.555 1.556-4.243-4.242Zm1.562-1.561a1.89 1.89 0 0 0 .412-.614l5.54 2.303a7.89 7.89 0 0 1-1.722 2.565l-4.23-4.254Zm.412-.614c.096-.23.145-.477.145-.726h6c0 1.04-.206 2.07-.605 3.03l-5.54-2.305ZM45 28a1.9 1.9 0 0 0-.145-.726l5.54-2.303c.4.96.605 1.99.605 3.029h-6Zm-.145-.726a1.89 1.89 0 0 0-.412-.614l4.23-4.255a7.89 7.89 0 0 1 1.722 2.566l-5.54 2.303Zm-.418-.62-1.556-1.556 4.243-4.242 1.555 1.555-4.242 4.243Zm-1.562-1.562a7.89 7.89 0 0 1-2.295-5.558l6-.004c0 .5.198.978.55 1.332l-4.255 4.23Zm-2.295-5.56V17.31h6v2.222h-6Z" fill="#0432DF" mask="url(#a)"/><path d="M18.574 31v-5.818H22.3v.883h-2.673v1.58h2.418v.883h-2.418V31h-1.054Zm4.687 0v-5.818h2.182c.447 0 .822.078 1.125.233.305.155.535.373.69.653.158.279.236.603.236.975 0 .373-.08.697-.238.971a1.58 1.58 0 0 1-.696.634c-.307.148-.684.221-1.131.221h-1.554v-.875h1.412c.261 0 .475-.036.642-.108a.764.764 0 0 0 .37-.32c.08-.143.122-.317.122-.523 0-.207-.041-.383-.123-.529a.777.777 0 0 0-.372-.335c-.166-.078-.381-.116-.645-.116h-.966V31h-1.054Zm3.006-2.636L27.707 31h-1.176l-1.415-2.636h1.151ZM28.465 31v-5.818h3.784v.883h-2.73v1.58h2.534v.883h-2.534v1.588h2.752V31h-3.806Zm4.859 0v-5.818h3.784v.883h-2.73v1.58h2.534v.883h-2.534v1.588h2.753V31h-3.807Z" fill="#0432DF"/></svg>