<svg width="24" height="23" fill="red" xmlns="http://www.w3.org/2000/svg"><path d="m3.014 13.29.008.01c1.208 1.668 2.663 3.12 4.174 4.408l.017.014.017.015a44.18 44.18 0 0 0 2.878 2.426c.53.407 1.024.763 1.428 1.017.194.123.353.212.474.27.134-.064.316-.176.55-.352.169-.127.336-.264.513-.41l.012-.01c.162-.133.341-.28.51-.404 3.327-2.532 6.743-5.495 8.454-8.649 1.407-3.004 1.306-6.488-.65-8.562-2.65-2.362-6.616-1.878-8.61.58l-.797.982-.771-1.002a5.82 5.82 0 0 0-1.957-1.637C6.018.712 2.745 2.03 1.4 4.868c-.943 2.988-.142 6.06 1.614 8.421Z" stroke="#4C526A" stroke-width="2"/></svg>