<svg width="124" height="38" fill="none" xmlns="http://www.w3.org/2000/svg"><path d="m23.9 10.65-4.68 16.753h-3.96l-3.143-11.928-3.288 11.928-3.936.024L.38 10.65s2.235-.34 3.6 0c5.055 1.255-2.254 12.835 2.952 13.008 5.248.173-1.685-11.727 3.408-13.008 1.418-.357 2.327-.362 3.744 0 5.044 1.287-1.989 13.027 3.216 12.936 5.183-.091-2.052-11.676 2.976-12.936 1.373-.345 3.624 0 3.624 0Zm.85 10.057c0-1.344.265-2.536.793-3.576.544-1.04 1.272-1.84 2.184-2.4.928-.56 1.96-.84 3.096-.84.992 0 1.856.2 2.592.6.752.4 1.352.904 1.8 1.512 0 0-.362-1.25 0-1.896.646-1.153 3.384 0 3.384 0v13.296h-3.384v-1.944c-.432.624-1.032 1.144-1.8 1.56-.752.4-1.624.6-2.616.6a5.71 5.71 0 0 1-3.072-.864c-.912-.576-1.64-1.384-2.184-2.424-.528-1.056-.792-2.264-.792-3.624Zm10.465.048s-.16-1.512-.48-2.088c-.32-.592-.752-1.04-1.296-1.344a3.397 3.397 0 0 0-1.752-.48c-.624 0-1.2.152-1.728.456-.528.304-.96.752-1.296 1.344-.32.576-.48 2.064-.48 2.064s.16 1.504.48 2.112c.336.592.768 1.048 1.296 1.368.544.32 1.12.48 1.728.48.624 0 1.208-.152 1.752-.456.544-.32.976-.768 1.296-1.344.32-.592.48-2.112.48-2.112Zm11.729 3.552c4.194 0-.671-9.045 3.36-10.2 1.343-.385 3.576 0 3.576 0l-4.92 13.296h-4.08l-4.896-13.296s2.25-.39 3.6 0c4.03 1.161-.834 10.2 3.36 10.2Zm20.704-3.84c0 .48-.032.912-.096 1.296s-9.8-.96-9.72 0c.08.96.416 1.712 1.008 2.256.592.544 1.32.816 2.184.816 1.248 0 2.136-.536 2.664-1.608s3.624 0 3.624 0c-.384 1.28-1.12 2.336-2.208 3.168-1.088.816-2.424 1.224-4.008 1.224-1.28 0-2.432-.28-3.456-.84a6.182 6.182 0 0 1-2.376-2.424c-.56-1.04-.84-2.24-.84-3.6 0-1.376.28-2.584.84-3.624a5.861 5.861 0 0 1 2.352-2.4c1.008-.56 2.168-.84 3.48-.84 1.264 0 2.392.272 3.384.816a5.63 5.63 0 0 1 2.328 2.328c.56.992.84 2.136.84 3.432Zm-3.48-.96c-.016-.864-.328-1.552-.936-2.064-.608-.528-1.352-.792-2.232-.792-.832 0-1.536.256-2.112.768-.56.496-.904 1.192-1.032 2.088 0 0 6.328.864 6.312 0Zm10.54 8.112c-1.088 0-2.064-.192-2.928-.576-.864-.4-1.552-.936-2.064-1.608a4.092 4.092 0 0 1-.816-2.232c-.048-.816 3.32-.512 3.384 0 .064.512.312.936.744 1.272.448.336 1.656.504 1.656.504s1.136-.128 1.488-.384c.368-.256.552-.584.552-.984 0-.432-.672-.96-.672-.96l-2.088-.72s-1.808-.488-2.448-.744a4.351 4.351 0 0 1-1.632-1.176c-.448-.528-.672-1.24-.672-2.136 0-.736.208-1.408.624-2.016.432-.608 1.04-1.088 1.824-1.44.8-.352 1.736-.528 2.808-.528 1.584 0 2.848.4 3.792 1.2.944.784 1.464 1.848 1.56 3.192.096 1.344-3.168.528-3.216 0-.048-.528-.272-.944-.672-1.248-.384-.32-1.56-.48-1.56-.48s-1.08.112-1.416.336c-.32.224-.48.536-.48.936 0 .448.224.792.672 1.032.448.224 2.088.696 2.088.696s1.752.488 2.376.744c.624.256 1.16.656 1.608 1.2.464.528.704 1.232.72 2.112 0 .768-.216 1.456-.648 2.064-.416.608-1.024 1.088-1.824 1.44-.784.336-1.704.504-2.76.504Zm6.694-8.616c0-1.778.368-3.12 1.104-4.416.752-1.312 1.768-2.328 3.048-3.048 1.296-.736 2.744-1.104 4.344-1.104 1.872 0 3.512.48 4.92 1.44s2.392 2.288 2.952 3.984c.56 1.696-3.48.8-3.864 0-.384-.8-.928-1.4-1.632-1.8-.688-.4-1.488-.6-2.4-.6-.976 0-1.848.232-2.616.696-.752.448-1.344 1.088-1.776 1.92-.416.832-.624 2.928-.624 2.928s.208 2.08.624 2.928c.432.832 1.024 1.48 1.776 1.944.768.448 1.64.672 2.616.672.912 0 1.712-.2 2.4-.6.704-.416 1.248-1.024 1.632-1.824.384-.8 4.424-1.712 3.864 0-.56 1.712-1.544 3.048-2.952 4.008-1.392.944-3.032 1.416-4.92 1.416-1.6 0-3.048-.36-4.344-1.08a8.195 8.195 0 0 1-3.048-3.048c-.736-1.296-1.104-2.639-1.104-4.416Zm24.662 8.616c-1.28 0-2.432-.28-3.456-.84a6.301 6.301 0 0 1-2.424-2.424c-.576-1.04-.864-2.24-.864-3.6 0-1.36.296-2.56.888-3.6a6.253 6.253 0 0 1 2.472-2.4c1.04-.576 2.2-.864 3.48-.864 1.28 0 2.44.288 3.48.864a6.091 6.091 0 0 1 2.448 2.4c.608 1.04.912 2.24.912 3.6 0 1.36-.312 2.56-.936 3.6a6.377 6.377 0 0 1-2.496 2.424c-1.04.56-2.208.84-3.504.84Zm0-2.928s1.176-.144 1.704-.432c.544-.304.976-.752 1.296-1.344.32-.592.48-2.16.48-2.16s-.336-2.232-1.008-2.904c-.656-.688-2.424-1.032-2.424-1.032s-1.768.344-2.424 1.032c-.64.672-.96 2.904-.96 2.904s.312 2.24.936 2.928c.64.672 2.4 1.008 2.4 1.008Z" fill="#fff"/></svg>