<svg width="55" height="55" viewBox="0 0 55 55" fill="none" xmlns="http://www.w3.org/2000/svg">
<path d="M21.66 24H2.34C1.048 24 0 22.952 0 21.66V2.34C0 1.048 1.048 0 2.34 0H21.66C22.952 0 24 1.048 24 2.34V21.66C24 22.952 22.952 24 21.66 24Z" fill="#FF0000"/>
<path d="M51.66 24H32.34C31.048 24 30 22.952 30 21.66V2.34C30 1.048 31.048 0 32.34 0H51.66C52.952 0 54 1.048 54 2.34V21.66C54 22.952 52.952 24 51.66 24Z" fill="#FF0000"/>
<path d="M21.66 54H2.34C1.048 54 0 52.952 0 51.66V32.34C0 31.048 1.048 30 2.34 30H21.66C22.952 30 24 31.048 24 32.34V51.66C24 52.952 22.952 54 21.66 54Z" fill="#FF0000"/>
<path d="M42 30V54" stroke="#FF0000" stroke-width="2" stroke-miterlimit="10" stroke-linecap="round"/>
<path d="M30 42H54" stroke="#FF0000" stroke-width="2" stroke-miterlimit="10" stroke-linecap="round"/>
</svg>
