<svg width="68" height="51" viewBox="0 0 68 51" fill="none" xmlns="http://www.w3.org/2000/svg">
<path fill-rule="evenodd" clip-rule="evenodd" d="M41.6682 42.1068H55.4693V36.5H53.2199V39.7994L41.6682 39.6543V42.1068Z" fill="#FF0000"/>
<path fill-rule="evenodd" clip-rule="evenodd" d="M39.8138 42.1138H33.8533L34.2297 46.7638C34.2297 46.7638 34.3691 47.4301 34.899 48.0473C35.4288 48.6645 36.3909 49.6183 36.3909 49.6183C36.3909 49.6183 37.2623 50.4459 35.9656 50.6704C35.2266 50.8036 31.964 51 29.2451 51H26.7285C24.0584 51 20.747 50.8176 20.001 50.6914C18.7043 50.467 19.5688 49.6674 19.5688 49.6674C19.5688 49.6674 20.5309 48.7486 21.0607 48.1315C21.5905 47.5143 21.7369 46.7568 21.7369 46.7568L22.1134 42.1068H1.58251C0.8296 42.1068 0 41.2372 0 40.4657V9.29049C0 8.53303 0.8296 8 1.58251 8H54.3562L53.2199 10.4618H2.13326V39.6311H39.8138L41.6682 39.6543V42.1068L39.8138 42.1138Z" fill="#FF0000"/>
<path d="M58.5 10.6506C61.3959 10.6506 63.7519 8.26166 63.7519 5.32529C63.7519 2.38893 61.3959 0 58.5 0C55.6042 0 53.2482 2.38893 53.2482 5.32529C53.2482 8.26166 55.6042 10.6506 58.5 10.6506Z" fill="#FF0000"/>
<path d="M67.452 26.9864V17.6857C67.452 15.6592 66.1676 13.8622 64.2684 13.2313L64.2596 13.2284L62.7607 12.762C62.5243 12.6884 62.2716 12.8153 62.1866 13.0517L59.0347 21.8208C58.8528 22.3267 58.1473 22.3267 57.9654 21.8208L54.8135 13.0517C54.7449 12.8608 54.5671 12.7409 54.3766 12.7409C54.3313 12.7409 52.7422 13.2277 52.7422 13.2277C50.8274 13.8747 49.5481 15.6747 49.5481 17.7099V26.9862C49.5481 27.0783 49.5747 27.1684 49.6245 27.2453L52.9132 32.3201V45.1606C52.9132 45.4212 52.9911 50.5 53.2482 50.5H63.4904C63.7475 50.5 64.0865 45.4212 64.0865 45.1606V32.3201L67.3753 27.2453C67.4254 27.1684 67.452 27.0784 67.452 26.9864Z" fill="#FF0000"/>
<path d="M59.697 12.9341C59.5705 12.7943 59.3854 12.7239 59.1981 12.7239H57.8018C57.6147 12.7239 57.4296 12.7943 57.3029 12.9341C57.107 13.1506 57.0785 13.4633 57.2176 13.7078L57.9639 14.8487L57.6145 17.8375L58.3026 19.6934C58.3696 19.88 58.6299 19.88 58.6972 19.6934L59.3852 17.8375L59.0359 14.8487L59.7822 13.7078C59.9214 13.4633 59.8929 13.1506 59.697 12.9341Z" fill="#FF0000"/>
</svg>
