<svg width="75" height="56" viewBox="0 0 75 56" fill="none" xmlns="http://www.w3.org/2000/svg">
<path d="M58.8234 1.11554C59.9324 2.21143 61.0463 3.3024 62.0469 4.48674C63.5108 6.21657 64.5705 8.2216 65.3887 10.4429H49.6162C49.769 10.0448 49.8824 9.68114 50.0451 9.33714C51.6716 5.8136 53.8797 2.74217 56.9997 0.373486C57.1229 0.280114 57.1969 0.122857 57.2954 0H57.4975C57.6158 0 58.2023 0.501257 58.8234 1.11554ZM41.3653 32.4834L45.7569 29.9329C46.0675 29.7511 46.3878 29.5791 46.6983 29.4071C47.4475 32.4785 48.1721 35.4664 48.9361 38.5919C46.4815 39.8057 43.953 41.0539 41.4146 42.312C40.6309 42.7002 40 42.3071 40 41.4323V34.8472C40 33.9774 40.6112 32.9208 41.3653 32.4834ZM73.5854 42.312C71.0667 41.0687 68.5579 39.8254 66.0639 38.5968C66.8082 35.545 67.5376 32.5522 68.2967 29.4267C70.0514 30.4342 71.8356 31.4563 73.6297 32.4834C74.3888 32.9159 75 33.9823 75 34.8472V41.4323C75.0049 42.3071 74.3641 42.7002 73.5854 42.312ZM57.606 11.7795C60.0458 11.7795 62.4905 11.8238 64.9352 11.755C65.7485 11.7353 66.0393 12.0498 66.2463 12.7624C67.5032 17.1853 67.7496 21.6769 67.2173 26.2177C66.749 30.1541 65.783 33.9725 64.4916 37.7171C64.2797 38.3216 64.0234 38.5575 63.3678 38.5526C59.4691 38.5231 55.5654 38.528 51.6667 38.5477C51.09 38.5526 50.7795 38.4248 50.5724 37.8105C48.6847 32.3114 47.344 26.6944 47.6151 20.8562C47.7433 18.1141 48.4136 15.4014 48.8178 12.669C48.9311 11.8877 49.3846 11.755 50.0894 11.7648C52.5834 11.8041 55.0922 11.7795 57.606 11.7795ZM52.9383 22.8662C52.958 24.9154 53.4361 26.8123 54.8704 28.3603C56.4181 30.0312 58.5671 30.0312 60.1197 28.38C62.6679 25.6673 62.7468 20.2075 60.2676 17.4408C58.5868 15.5635 56.4181 15.5488 54.7472 17.4261C53.3721 18.979 52.9531 20.8611 52.9383 22.8662ZM51.0703 39.8205H63.9198C63.6586 40.7787 63.4467 41.6879 63.146 42.5626C63.0819 42.7592 62.7123 42.9803 62.4806 42.9803C59.1586 43.0049 55.8365 43.0098 52.5243 42.9754C52.2877 42.9705 51.918 42.6904 51.8392 42.4594C51.5434 41.6437 51.3414 40.7886 51.0703 39.8205Z" fill="#FF0000"/>
<path fill-rule="evenodd" clip-rule="evenodd" d="M41.6682 47.1068H55.4693V41.5H53.2199V44.7994L41.6682 44.6543V47.1068Z" fill="#FF0000"/>
<path fill-rule="evenodd" clip-rule="evenodd" d="M39.8138 47.1138H33.8533L34.2297 51.7638C34.2297 51.7638 34.3691 52.4301 34.899 53.0473C35.4288 53.6645 36.3909 54.6183 36.3909 54.6183C36.3909 54.6183 37.2623 55.4459 35.9656 55.6704C35.2266 55.8036 31.964 56 29.2451 56H26.7285C24.0584 56 20.747 55.8176 20.001 55.6914C18.7043 55.467 19.5688 54.6674 19.5688 54.6674C19.5688 54.6674 20.5309 53.7486 21.0607 53.1315C21.5905 52.5143 21.7369 51.7568 21.7369 51.7568L22.1134 47.1068H1.58251C0.8296 47.1068 0 46.2372 0 45.4657V14.2905C0 13.533 0.8296 13 1.58251 13H54.3562L53.2199 15.4618H2.13326V44.6311H39.8138L41.6682 44.6543V47.1068L39.8138 47.1138Z" fill="#FF0000"/>
</svg>
