<svg width="50" height="52" viewBox="0 0 50 52" fill="none" xmlns="http://www.w3.org/2000/svg">
<path d="M48.9228 15.4751H30.5769V3.4956C30.5769 1.57119 29.0051 0 27.0825 0H4.0098C2.08602 0 0.514832 1.57182 0.514832 3.4956V48.2554C0.514832 50.1785 2.08665 51.751 4.0098 51.751H27.0825C29.0044 51.751 30.5769 50.1785 30.5769 48.2554V37.9281H38.9494H40.8257L40.9276 37.6496L48.5575 17.2881L49.2361 15.4738L48.9228 15.4751ZM18.7082 18.551L24.8188 25.2656L12.2873 35.6872L18.7082 18.551ZM20.0236 17.0988H46.2311L29.3077 27.2944L20.0236 17.0988ZM11.8543 2.52073H19.2361C19.4691 2.52073 19.6603 2.71001 19.6603 2.9436C19.6603 3.17529 19.4691 3.36583 19.2361 3.36583H11.8543C11.6214 3.36583 11.4327 3.17529 11.4327 2.9436C11.4327 2.71001 11.6214 2.52073 11.8543 2.52073ZM15.5449 50.0057C14.5814 50.0057 13.7971 49.2246 13.7971 48.2567C13.7971 47.2938 14.5795 46.5095 15.5449 46.5095C16.5103 46.5095 17.2946 47.29 17.2946 48.2567C17.2946 49.2239 16.5103 50.0057 15.5449 50.0057ZM28.1435 45.2852H2.94567V5.54473H28.1435V15.4764H18.5461H18.2359L17.7953 16.65H5.6177V19.3315H16.7913L15.8962 21.7193H9.28169V23.7298H15.1429L14.3858 25.7498H10.5326V27.3831H13.7737L9.92802 37.6439L9.8223 37.9268H11.6961H28.1467L28.1435 45.2852ZM13.6477 36.3076L25.7266 26.262L28.5379 29.3505L33.6617 26.262L38.2138 36.3076H13.6477ZM40.0394 35.6878L35.3158 25.2649L46.4603 18.5504L40.0394 35.6878Z" fill="#FF0000"/>
</svg>
