<svg width="48" height="43" viewBox="0 0 48 43" fill="none" xmlns="http://www.w3.org/2000/svg">
<path d="M0 0V43H47.1491V0H0ZM16.8336 1.70276H30.3155V10.3028H16.8336V1.70276ZM16.8336 12.0163H30.3155V20.6163H16.8336V12.0163ZM15.1201 41.2865H1.70276V32.6865H15.1201V41.2865ZM15.1201 30.9783H1.70276V22.3783H15.1201V30.9783ZM15.1201 20.6109H1.70276V12.0109H15.1201V20.6109ZM15.1201 10.3081H1.70276V1.70815H15.1201V10.3081ZM45.441 41.2865H42.084V29.2109H37.0188V41.2865H33.6618V32.6865H28.5966V41.2865H25.2396V36.1028H20.1744V41.2865H16.8174V22.3783H45.4248L45.441 41.2865ZM45.441 20.6109H31.959V12.0109H45.441V20.6109ZM45.441 10.3081H31.959V1.70815H45.441V10.3081Z" fill="#FF0000"/>
</svg>
