<svg width="53" height="53" viewBox="0 0 53 53" fill="none" xmlns="http://www.w3.org/2000/svg">
<path fill-rule="evenodd" clip-rule="evenodd" d="M27.8911 45.7119V38.5711H30.3442V48.7112C30.3442 50.6539 28.7569 52.2381 26.8173 52.2381H3.52692C1.58424 52.2381 0 50.6539 0 48.7112V3.52692C0 1.58424 1.58424 0 3.52692 0H26.8189C28.7584 0 30.3458 1.58424 30.3458 3.52692V13.2791H27.8911V5.59373H2.45162V45.7119H27.8911ZM18.8961 2.54627H11.445C11.2092 2.54627 11.0199 2.73402 11.0199 2.96987C11.0199 3.20262 11.2092 3.39658 11.445 3.39658H18.8961C19.1319 3.39658 19.3228 3.20262 19.3228 2.96987C19.3228 2.73402 19.1319 2.54627 18.8961 2.54627ZM13.4063 48.7097C13.4063 49.6857 14.1977 50.477 15.1706 50.477C16.1466 50.477 16.9364 49.6857 16.9379 48.7097C16.9379 47.7368 16.1466 46.9454 15.1706 46.9454C14.1977 46.9454 13.4063 47.7368 13.4063 48.7097Z" fill="#FF0000"/>
<path d="M36.4141 36.8337L36.4152 36.8327C37.1271 36.1291 38.0722 35.7391 39.067 35.7391C41.1107 35.7391 42.768 37.4162 42.768 39.4711C42.768 41.5259 41.1107 43.203 39.067 43.203C38.0713 43.203 37.1348 42.8125 36.4162 42.1105L36.4152 42.1095C35.6952 41.3978 35.3041 40.4674 35.3041 39.4711C35.3041 39.1143 35.3552 38.7663 35.4534 38.4339C35.2676 38.6217 35.01 38.7384 34.7261 38.7384H25.2784C24.7147 38.7384 24.2546 38.2782 24.2546 37.7146C24.2546 37.151 24.7147 36.6908 25.2784 36.6908H31.3733V18.8447H13.7051V23.4849C13.7051 24.0486 13.245 24.5087 12.6813 24.5087C12.1177 24.5087 11.6576 24.0486 11.6576 23.4849V17.8209C11.6576 17.2572 12.1177 16.7971 12.6813 16.7971H32.3893C32.953 16.7971 33.4131 17.2572 33.4131 17.8209V20.3565H39.6783C39.9219 20.3565 40.1488 20.4385 40.3333 20.5922C40.3334 20.5923 40.3335 20.5923 40.3335 20.5924L45.8729 25.1802C46.1116 25.3773 46.24 25.6717 46.2499 25.9681L46.2502 25.9778L46.25 25.9778L46.1881 37.7069C46.1881 37.7071 46.1881 37.7073 46.1881 37.7075L46.1881 37.7082L45.9381 37.7069C45.9381 38.1324 45.5899 38.4729 45.1643 38.4729H43.5936C43.168 38.4729 42.8198 38.1247 42.8198 37.6991C42.8198 37.2735 43.168 36.9253 43.5936 36.9253L36.4141 36.8337ZM36.4141 36.8337C36.1473 37.1005 35.9243 37.3982 35.7499 37.7189C35.7499 37.7175 35.7499 37.716 35.7499 37.7146C35.7499 37.151 35.2898 36.6908 34.7261 36.6908H33.4208V22.404H39.3174L44.2019 26.4495L44.1496 36.6753L36.4141 36.8337ZM9.3285 29.1467C9.32972 28.5808 9.79265 28.1329 10.3523 28.1329H10.3523H10.3523H10.3523H10.3523H10.3523H10.3523H10.3523H10.3523H10.3523H10.3524H10.3524H10.3524H10.3524H10.3524H10.3524H10.3524H10.3524H10.3524H10.3524H10.3524H10.3525H10.3525H10.3525H10.3525H10.3525H10.3525H10.3525H10.3525H10.3525H10.3525H10.3525H10.3525H10.3526H10.3526H10.3526H10.3526H10.3526H10.3526H10.3526H10.3526H10.3526H10.3527H10.3527H10.3527H10.3527H10.3527H10.3527H10.3527H10.3528H10.3528H10.3528H10.3528H10.3528H10.3528H10.3528H10.3528H10.3528H10.3528H10.3528H10.3528H10.3529H10.3529H10.3529H10.3529H10.3529H10.3529H10.3529H10.3529H10.3529H10.3529H10.3529H10.3529H10.353H10.353H10.353H10.353H10.353H10.353H10.353H10.353H10.353H10.353H10.353H10.3531H10.3531H10.3531H10.3531H10.3531H10.3531H10.3531H10.3531H10.3531H10.3531H10.3532H10.3532H10.3532H10.3532H10.3532H10.3532H10.3532H10.3532H10.3532H10.3533H10.3533H10.3533H10.3533H10.3533H10.3533H10.3533H10.3533H10.3534H10.3534H10.3534H10.3534H10.3534H10.3534H10.3534H10.3534H10.3535H10.3535H10.3535H10.3535H10.3535H10.3535H10.3535H10.3535H10.3536H10.3536H10.3536H10.3536H10.3536H10.3536H10.3536H10.3537H10.3537H10.3537H10.3537H10.3537H10.3537H10.3538H10.3538H10.3538H10.3538H10.3538H10.3538H10.3538H10.3539H10.3539H10.3539H10.3539H10.3539H10.3539H10.354H10.354H10.354H10.354H10.354H10.354H10.3541H10.3541H10.3541H10.3541H10.3541H10.3541H10.3542H10.3542H10.3542H10.3542H10.3542H10.3542H10.3543H10.3543H10.3543H10.3543H10.3543H10.3544H10.3544H10.3544H10.3544H10.3544H10.3545H10.3545H10.3545H10.3545H10.3545H10.3546H10.3546H10.3546H10.3546H10.3546H10.3547H10.3547H10.3547H10.3547H10.3547H10.3548H10.3548H10.3548H10.3548H10.3548H10.3549H10.3549H10.3549H10.3549H10.355H10.355H10.355H10.355H10.3551H10.3551H10.3551H10.3551H10.3551H10.3552H10.3552H10.3552H10.3552H10.3553H10.3553H10.3553H10.3553H10.3554H10.3554H10.3554H10.3554H10.3555H10.3555H10.3555H10.3555H10.3556H10.3556H10.3556H10.3556H10.3557H10.3557H10.3557H10.3557H10.3558H10.3558H10.3558H10.3559H10.3559H10.3559H10.3559H10.356H10.356H10.356H10.356H10.3561H10.3561H10.3561H10.3562H10.3562H10.3562H10.3562H10.3563H10.3563H10.3563H10.3564H10.3564H10.3564H10.3565H10.3565H10.3565H10.3565H10.3566H10.3566H10.3566H10.3567H10.3567H10.3567H10.3568H10.3568H10.3568H10.3569H10.3569H10.3569H10.357H10.357H10.357H10.357H10.3571H10.3571H10.3571H10.3572H10.3572H10.3572H10.3573H10.3573H10.3574H10.3574H10.3574H10.3575H10.3575H10.3575H10.3576H10.3576H10.3576H10.3577H10.3577H10.3577H10.3578H10.3578H10.3578H10.3579H10.3579H10.358H10.358H10.358H10.3581H10.3581H10.3581H10.3582H10.3582H10.3583H10.3583H10.3583H10.3584H10.3584H10.3584H10.3585H10.3585H10.3586H10.3586H10.3586H10.3587H10.3587H10.3588H10.3588H10.3588H10.3589H10.3589H10.359H10.359H10.3591H10.3591H10.3591H10.3592H10.3592H10.3593H10.3593H10.3593H10.3594H10.3594H10.3595H10.3595H10.3596H10.3596H10.3597H10.3597H10.3597H10.3598H10.3598H10.3599H10.3599H10.36H10.36H10.3615L19.7459 28.1871C19.7462 28.1871 19.7464 28.1871 19.7467 28.1871L19.7473 28.1871L19.7459 28.4371L9.3285 29.1467ZM9.3285 29.1467C9.32851 29.1459 9.32852 29.1452 9.32854 29.1445L9.5785 29.1489H9.3285C9.3285 29.1482 9.3285 29.1474 9.3285 29.1467ZM42.4614 26.3018L42.4609 26.3014L40.1339 24.2062C39.9456 24.0296 39.6983 23.939 39.4461 23.939H35.4767C34.913 23.939 34.4529 24.3992 34.4529 24.9628V31.3078C34.4529 31.8714 34.913 32.3315 35.4767 32.3315H41.7752C42.3388 32.3315 42.799 31.8714 42.799 31.3078V27.0597C42.799 26.7719 42.6758 26.4958 42.4614 26.3018ZM17.5196 36.8327L17.5186 36.8337C16.8083 37.544 16.4085 38.4735 16.4085 39.4711C16.4085 40.4674 16.7997 41.3978 17.5196 42.1095L17.5207 42.1105C18.2392 42.8125 19.1758 43.203 20.1715 43.203C22.2152 43.203 23.8725 41.5259 23.8725 39.4711C23.8725 37.4162 22.2152 35.7391 20.1715 35.7391C19.1766 35.7391 18.2315 36.1291 17.5196 36.8327ZM19.729 30.2346H19.7304L10.3431 30.1804L10.3437 30.1804C10.344 30.1804 10.3443 30.1804 10.3445 30.1804L19.729 30.2346ZM39.067 41.1555C38.1334 41.1555 37.3516 40.3815 37.3516 39.4711C37.3516 38.5606 38.1334 37.7866 39.067 37.7866C39.9773 37.7866 40.7205 38.5374 40.7205 39.4711C40.7205 40.4048 39.9773 41.1555 39.067 41.1555ZM40.7514 30.284H36.5005V25.9789H39.0484L40.7514 27.5115V30.284ZM20.1715 41.1555C19.2378 41.1555 18.4561 40.3815 18.4561 39.4711C18.4561 38.5606 19.2378 37.7866 20.1715 37.7866C21.0818 37.7866 21.8249 38.5374 21.8249 39.4711C21.8249 40.4048 21.0818 41.1555 20.1715 41.1555ZM15.0104 36.6908H13.7051V34.8826C13.7051 34.3189 13.245 33.8588 12.6813 33.8588C12.1177 33.8588 11.6576 34.3189 11.6576 34.8826V37.7146C11.6576 38.2782 12.1177 38.7384 12.6813 38.7384H15.0104C15.574 38.7384 16.0342 38.2782 16.0342 37.7146C16.0342 37.151 15.574 36.6908 15.0104 36.6908ZM19.1834 32.7238C19.1834 32.1601 18.7233 31.7 18.1596 31.7H8.77377C8.21013 31.7 7.75 32.1601 7.75 32.7238C7.75 33.2874 8.21013 33.7475 8.77377 33.7475H18.1596C18.7217 33.7475 19.1834 33.2968 19.1834 32.7238ZM11.923 26.6675H21.3089C21.8725 26.6675 22.3327 26.2074 22.3327 25.6437C22.3327 25.0801 21.8725 24.62 21.3089 24.62H11.923C11.3594 24.62 10.8993 25.0801 10.8993 25.6437C10.8993 26.2074 11.3594 26.6675 11.923 26.6675Z" fill="#FF0000" stroke="#FF0000" stroke-width="0.5"/>
</svg>
