<svg width="71" height="53" viewBox="0 0 71 53" fill="none" xmlns="http://www.w3.org/2000/svg">
<g clip-path="url(#clip0_3_117)">
<path d="M48.875 9.96875H2.125C0.956242 9.96875 0 10.925 0 12.0938V43.7563C0 44.9251 0.956242 45.8813 2.125 45.8813H48.875C50.0438 45.8813 51 44.9251 51 43.7563V12.0938C51 10.925 50.0438 9.96875 48.875 9.96875Z" fill="#FF0000"/>
<path d="M47.8125 13.1562H3.18756V42.5875H47.8125V13.1562Z" fill="white"/>
<path d="M35.1687 45.8812H15.725V51.6188H35.1687V45.8812Z" fill="#FF0000"/>
<path d="M41.1187 51.6188H9.88123V53H41.1187V51.6188Z" fill="#FF0000"/>
<path d="M35.1687 45.8812H15.725V47.4749H35.1687V45.8812Z" fill="#FF0000"/>
<path d="M25.7125 21.4437V25.4812C25.6062 25.4812 25.6062 25.4812 25.4999 25.4812C25.3937 25.4812 25.3937 25.4812 25.2874 25.4812V21.4437H25.7125Z" fill="white"/>
<path d="M25.7125 36.9563V40.9938H25.2874V36.9563C25.3937 36.9563 25.3937 36.9563 25.4999 36.9563C25.6062 36.9563 25.6062 36.9563 25.7125 36.9563Z" fill="white"/>
<path d="M32.5126 24.4188L29.6439 27.2875C29.5376 27.1812 29.4313 27.075 29.3251 26.9687L32.1938 24.1L32.5126 24.4188Z" fill="white"/>
<path d="M21.5687 35.4688L18.7 38.3375L18.3812 38.0187L21.25 35.15C21.3562 35.2563 21.4625 35.3625 21.5687 35.4688Z" fill="white"/>
<path d="M35.275 31.0063V31.4314H31.3438C31.3438 31.3251 31.3438 31.3251 31.3438 31.2189C31.3438 31.1126 31.3438 31.1126 31.3438 31.0063H35.275Z" fill="white"/>
<path d="M19.7625 31.2189C19.7625 31.3251 19.7625 31.3251 19.7625 31.4314H15.8312V31.0063H19.7625C19.7625 31.0063 19.7625 31.1126 19.7625 31.2189Z" fill="white"/>
<path d="M32.5125 37.9125L32.1937 38.2313L29.4313 35.4688C29.5375 35.3625 29.6438 35.2563 29.7501 35.15L32.5125 37.9125Z" fill="white"/>
<path d="M21.5687 26.9687C21.4625 27.075 21.3562 27.1812 21.25 27.2875L18.3812 24.4188L18.7 24.1L21.5687 26.9687Z" fill="white"/>
<path d="M23.4811 25.8C23.3749 25.8 23.2686 25.9063 23.0561 26.0125L22.0999 23.7812L22.5249 23.5687L23.4811 25.8Z" fill="white"/>
<path d="M28.7937 38.7625L28.3687 38.975L27.4124 36.7438C27.5187 36.7438 27.6249 36.6375 27.8375 36.5312L28.7937 38.7625Z" fill="white"/>
<path d="M20.2939 28.775C20.1876 28.8812 20.1876 28.9875 20.0814 29.2L17.8501 28.2438L18.0626 27.8187L20.2939 28.775Z" fill="white"/>
<path d="M33.15 34.1939L32.9375 34.619L30.7062 33.6627C30.8125 33.5565 30.8125 33.4502 30.9188 33.2377L33.15 34.1939Z" fill="white"/>
<path d="M20.2939 33.5563L18.0626 34.5125L17.8501 34.0875L20.0814 33.1312C20.1876 33.3437 20.1876 33.45 20.2939 33.5563Z" fill="white"/>
<path d="M33.15 28.2438L30.9188 29.2C30.9188 29.0937 30.8125 28.9875 30.7062 28.775L32.9375 27.8187L33.15 28.2438Z" fill="white"/>
<path d="M23.4811 36.6376L22.5249 38.8688L22.0999 38.6563L23.0561 36.425C23.2687 36.5313 23.375 36.5313 23.4811 36.6376Z" fill="white"/>
<path d="M28.7937 23.675L27.9437 25.9063C27.8375 25.8001 27.7312 25.8 27.5187 25.6938L28.4749 23.4625L28.7937 23.675Z" fill="white"/>
<path d="M13.3875 14.573C13.3875 16.8042 15.1937 18.6104 17.425 18.6104C19.6563 18.6104 21.4625 16.8042 21.4625 14.573V12.7667H13.3875V14.573Z" fill="#FF0000"/>
<path d="M29.5375 12.7667V14.573C29.5375 16.8042 31.3437 18.6104 33.575 18.6104C35.8062 18.6104 37.6125 16.8042 37.6125 14.573V12.7667C37.6125 12.7667 29.5375 12.7667 29.5375 12.7667Z" fill="#FF0000"/>
<path d="M5.3125 14.573C5.3125 16.8042 7.11872 18.6104 9.34999 18.6104C11.5813 18.6104 13.3875 16.8042 13.3875 14.573V12.7667H5.3125V14.573Z" fill="#FF0000"/>
<path d="M21.4625 14.573C21.4625 16.8042 23.2687 18.6104 25.5 18.6104C27.7313 18.6104 29.5375 16.8042 29.5375 14.573V12.7667H21.4625V14.573Z" fill="#FF0000"/>
<path d="M37.6124 12.7667V14.573C37.6124 16.8042 39.4186 18.6104 41.6499 18.6104C43.8812 18.6104 45.6874 16.8042 45.6874 14.573V12.7667C45.6874 12.7667 37.6124 12.7667 37.6124 12.7667Z" fill="#FF0000"/>
<path d="M24.5437 36.3541C24.9544 36.3541 25.2874 36.0212 25.2874 35.6104C25.2874 35.1997 24.9544 34.8667 24.5437 34.8667C24.133 34.8667 23.8 35.1997 23.8 35.6104C23.8 36.0212 24.133 36.3541 24.5437 36.3541Z" fill="white"/>
<path d="M27.3062 36.3541C27.717 36.3541 28.0499 36.0212 28.0499 35.6104C28.0499 35.1997 27.717 34.8667 27.3062 34.8667C26.8955 34.8667 26.5625 35.1997 26.5625 35.6104C26.5625 36.0212 26.8955 36.3541 27.3062 36.3541Z" fill="white"/>
</g>
<path d="M54.5 33.5594C63.6127 33.5594 71 26.0469 71 16.7797C71 7.51252 63.6127 0 54.5 0C45.3873 0 38 7.51252 38 16.7797C38 26.0469 45.3873 33.5594 54.5 33.5594Z" fill="#FF0000"/>
<path d="M51.7036 21.8135L51.1442 19.8559H64.0085V10.0679H48.6273L47.7882 6.43225H43.3137V8.11011H46.6697L50.5851 23.4913H64.5682V21.8135H51.7036ZM62.3307 11.4661V17.8984H50.8645L49.1866 11.4661H62.3307Z" fill="white"/>
<defs>
<clipPath id="clip0_3_117">
<rect width="51" height="51" fill="white" transform="translate(0 2)"/>
</clipPath>
</defs>
</svg>
