<svg width="53" height="53" viewBox="0 0 53 53" fill="none" xmlns="http://www.w3.org/2000/svg">
<path d="M27.8911 38.9512V46.0934H2.45162V5.97532H27.8911V13.6607H30.3458V3.90851C30.3458 1.96584 28.7584 0.381592 26.8189 0.381592H3.52692C1.58424 0.381592 0 1.96584 0 3.90851V49.0928C0 51.0355 1.58424 52.6197 3.52692 52.6197H26.8173C28.7569 52.6197 30.3442 51.0355 30.3442 49.0928V38.9527H27.8911V38.9512ZM11.445 2.92786H18.8961C19.1319 2.92786 19.3228 3.11561 19.3228 3.35147C19.3228 3.58421 19.1319 3.77817 18.8961 3.77817H11.445C11.2092 3.77817 11.0199 3.58421 11.0199 3.35147C11.0199 3.11561 11.2092 2.92786 11.445 2.92786ZM15.1706 50.8586C14.1977 50.8586 13.4063 50.0672 13.4063 49.0913C13.4063 48.1184 14.1977 47.327 15.1706 47.327C16.1466 47.327 16.9379 48.1184 16.9379 49.0913C16.9364 50.0672 16.1466 50.8586 15.1706 50.8586ZM39.4214 36.7913H14.1822L9.53804 15.937H37.9349L37.1653 18.9255H13.262L16.5779 33.8074H37.0241L42.1617 10.5465H53V13.5319H44.559L39.4214 36.7913ZM22.5471 40.7573C22.5471 42.2965 21.2965 43.5456 19.7619 43.5456C18.2227 43.5456 16.9736 42.2965 16.9736 40.7573C16.9736 39.2212 18.2227 37.9721 19.7619 37.9721C21.2996 37.9721 22.5471 39.2212 22.5471 40.7573ZM37.1188 40.7573C37.1188 42.2965 35.8697 43.5456 34.3304 43.5456C32.7943 43.5456 31.5452 42.2965 31.5452 40.7573C31.5452 39.2212 32.7943 37.9721 34.3304 37.9721C35.8697 37.9721 37.1188 39.2212 37.1188 40.7573Z" fill="#FF0000"/>
</svg>
