<svg width="61" height="43" viewBox="0 0 61 43" fill="none" xmlns="http://www.w3.org/2000/svg">
<path d="M60.1843 30.7754H59.1038V18.2071C59.1038 17.625 58.6506 17.1481 58.0999 17.1481H55.5135V1.29049C55.5135 0.533028 55.1091 0 54.3562 0H1.58251C0.8296 0 0 0.533028 0 1.29049V32.4657C0 33.2372 0.8296 34.1068 1.58251 34.1068H22.1134L21.7369 38.7568C21.7369 38.7568 21.5905 39.5143 21.0607 40.1315C20.5309 40.7486 19.5688 41.6674 19.5688 41.6674C19.5688 41.6674 18.7043 42.467 20.001 42.6914C20.747 42.8176 24.0584 43 26.7285 43H29.2451C31.964 43 35.2266 42.8036 35.9656 42.6704C37.2623 42.4459 36.3909 41.6183 36.3909 41.6183C36.3909 41.6183 35.4288 40.6645 34.899 40.0473C34.3691 39.4301 34.2297 38.7638 34.2297 38.7638L33.8533 34.1138H39.8138V41.955C39.8138 42.5371 40.267 42.993 40.8317 42.993H60.1843C60.6375 42.993 61 42.6283 61 42.1724V31.596C61 31.1401 60.6375 30.7754 60.1843 30.7754ZM58.567 31.4557V31.6731C58.567 31.7503 58.5182 31.7994 58.4415 31.7994H57.7234C57.6607 31.7994 57.5979 31.7503 57.5979 31.6731V31.4557C57.5979 31.3786 57.6607 31.3154 57.7234 31.3154H58.4415C58.5251 31.3154 58.567 31.3786 58.567 31.4557ZM2.13326 31.6311V2.46175H53.2199V17.1481H40.8317C40.267 17.1481 39.8138 17.618 39.8138 18.2071V31.6311H2.13326ZM41.6682 34.1068V19.3433H57.1309V30.7824H55.9875C55.5483 30.7824 55.1719 31.1471 55.1719 31.603V40.8188H41.6682V34.1068ZM49.4414 42.4389C49.1277 42.4389 48.8627 42.1724 48.8627 41.8568C48.8627 41.5272 49.1277 41.2606 49.4414 41.2606C49.7551 41.2606 50.0061 41.5272 50.0061 41.8568C50.0061 42.1654 49.7551 42.4389 49.4414 42.4389ZM57.6119 41.8989C57.6119 41.6113 57.8489 41.3799 58.1417 41.3799C58.4415 41.3799 58.6715 41.6183 58.6715 41.8989C58.6715 42.2005 58.4345 42.4319 58.1417 42.4319C57.8489 42.4389 57.6119 42.2005 57.6119 41.8989ZM60.512 41.0292H55.6529V32.2482H60.512V41.0292Z" fill="#FF0000"/>
</svg>
