<svg width="56" height="56" fill="none" xmlns="http://www.w3.org/2000/svg"><path d="M13.81 10.585a.2.2 0 0 1 .38 0l.888 2.732a.2.2 0 0 0 .19.138h2.872a.2.2 0 0 1 .117.362l-2.323 1.688a.2.2 0 0 0-.073.223l.888 2.732a.2.2 0 0 1-.308.223l-2.323-1.688a.2.2 0 0 0-.236 0l-2.323 1.688a.2.2 0 0 1-.308-.223l.888-2.732a.2.2 0 0 0-.073-.223l-2.323-1.688a.2.2 0 0 1 .117-.362h2.872a.2.2 0 0 0 .19-.138l.888-2.732Zm14 0a.2.2 0 0 1 .38 0l.888 2.732a.2.2 0 0 0 .19.138h2.872a.2.2 0 0 1 .117.362l-2.323 1.688a.2.2 0 0 0-.073.223l.888 2.732a.2.2 0 0 1-.308.223l-2.323-1.688a.2.2 0 0 0-.236 0l-2.323 1.688a.2.2 0 0 1-.308-.223l.888-2.732a.2.2 0 0 0-.073-.223l-2.323-1.688a.2.2 0 0 1 .117-.362h2.872a.2.2 0 0 0 .19-.138l.888-2.732Zm14 0a.2.2 0 0 1 .38 0l.888 2.732a.2.2 0 0 0 .19.138h2.872a.2.2 0 0 1 .117.362l-2.323 1.688a.2.2 0 0 0-.073.223l.888 2.732a.2.2 0 0 1-.308.223l-2.323-1.688a.2.2 0 0 0-.236 0l-2.323 1.688a.2.2 0 0 1-.308-.223l.888-2.732a.2.2 0 0 0-.073-.223l-2.323-1.688a.2.2 0 0 1 .117-.362h2.872a.2.2 0 0 0 .19-.138l.888-2.732Z" fill="#CDD6F9"/><path d="m40.41 25.863-5.934 5.22-5.287-6.508a1.56 1.56 0 0 0-2.44.027l-5.045 6.48-6.126-5.295a1.56 1.56 0 0 0-2.562 1.403L15 43h26l1.983-15.737a1.558 1.558 0 0 0-2.573-1.4Z" fill="#0432DF"/><path d="M15 45h26v2a1 1 0 0 1-1 1H16a1 1 0 0 1-1-1v-2Z" fill="#CDD6F9"/></svg>