<svg width="56" height="56" fill="none" xmlns="http://www.w3.org/2000/svg"><circle cx="28" cy="36" r="11" fill="#CDD6F9"/><path d="M28 18c8.132 0 15 6.869 15 15 0 8.132-6.868 15-15 15-8.131 0-15-6.868-15-15 0-8.131 6.869-15 15-15Zm0 7.5c-2.59 0-4.5 1.908-4.5 4.5s1.91 4.5 4.5 4.5c2.589 0 4.5-1.908 4.5-4.5s-1.911-4.5-4.5-4.5Zm7.659 14.658c-1.346-1.98-3.59-3.3-6.159-3.3h-3c-2.571 0-4.814 1.32-6.159 3.3C22.258 42.21 24.977 43.5 28 43.5c3.023 0 5.742-1.29 7.659-3.342Z" fill="#0432DF"/><path d="M11.81 16.585a.2.2 0 0 1 .38 0l.663 2.04a.2.2 0 0 0 .19.139h2.146a.2.2 0 0 1 .117.362l-1.735 1.26a.2.2 0 0 0-.073.224l.663 2.04a.2.2 0 0 1-.308.224l-1.735-1.26a.2.2 0 0 0-.236 0l-1.735 1.26a.2.2 0 0 1-.308-.223l.663-2.04a.2.2 0 0 0-.073-.224l-1.735-1.261a.2.2 0 0 1 .117-.362h2.146a.2.2 0 0 0 .19-.138l.663-2.04Zm32.38 0a.2.2 0 0 0-.38 0l-.663 2.04a.2.2 0 0 1-.19.139H40.81a.2.2 0 0 0-.117.362l1.735 1.26a.2.2 0 0 1 .073.224l-.663 2.04a.2.2 0 0 0 .308.224l1.735-1.26a.2.2 0 0 1 .236 0l1.735 1.26a.2.2 0 0 0 .308-.223l-.663-2.04a.2.2 0 0 1 .073-.224l1.735-1.261a.2.2 0 0 0-.117-.362h-2.146a.2.2 0 0 1-.19-.138l-.663-2.04Zm-25.38-6a.2.2 0 0 1 .38 0l.663 2.04a.2.2 0 0 0 .19.139h2.146a.2.2 0 0 1 .117.362l-1.735 1.26a.2.2 0 0 0-.073.224l.663 2.04a.2.2 0 0 1-.308.224l-1.735-1.26a.2.2 0 0 0-.236 0l-1.735 1.26a.2.2 0 0 1-.308-.223l.663-2.04a.2.2 0 0 0-.073-.224l-1.735-1.261a.2.2 0 0 1 .117-.362h2.146a.2.2 0 0 0 .19-.138l.663-2.04Zm18.38 0a.2.2 0 0 0-.38 0l-.663 2.04a.2.2 0 0 1-.19.139H33.81a.2.2 0 0 0-.117.362l1.735 1.26a.2.2 0 0 1 .073.224l-.663 2.04a.2.2 0 0 0 .308.224l1.735-1.26a.2.2 0 0 1 .236 0l1.735 1.26a.2.2 0 0 0 .308-.223l-.663-2.04a.2.2 0 0 1 .073-.224l1.735-1.261a.2.2 0 0 0-.117-.362h-2.146a.2.2 0 0 1-.19-.138l-.663-2.04Zm-9.38-2a.2.2 0 0 1 .38 0l.663 2.04a.2.2 0 0 0 .19.139h2.146a.2.2 0 0 1 .117.362l-1.735 1.26a.2.2 0 0 0-.073.224l.663 2.04a.2.2 0 0 1-.308.224l-1.735-1.26a.2.2 0 0 0-.236 0l-1.735 1.26a.2.2 0 0 1-.308-.223l.663-2.04a.2.2 0 0 0-.073-.224l-1.735-1.261a.2.2 0 0 1 .117-.362h2.146a.2.2 0 0 0 .19-.138l.663-2.04Z" fill="#CDD6F9"/></svg>