<svg width="41" height="40" fill="none" xmlns="http://www.w3.org/2000/svg"><path d="M32.861 11.132C34.578 12.955 35.5 15 35.5 18.315c0 5.833-4.095 11.062-10.05 13.647l-1.488-2.297c5.558-3.007 6.645-6.908 7.078-9.368-.895.463-2.067.625-3.215.518-3.007-.278-5.377-2.747-5.377-5.815a5.834 5.834 0 0 1 5.834-5.833c1.788 0 3.498.816 4.58 1.965Zm-16.666 0c1.716 1.823 2.638 3.868 2.638 7.183 0 5.833-4.095 11.062-10.05 13.647l-1.488-2.297c5.558-3.007 6.645-6.908 7.078-9.368-.895.463-2.066.625-3.215.518-3.006-.278-5.375-2.747-5.375-5.815a5.833 5.833 0 0 1 5.833-5.833c1.789 0 3.499.816 4.58 1.965h-.001Z" fill="#F59E00"/></svg>