<svg width="25" height="24" viewBox="0 0 25 24" fill="none" xmlns="http://www.w3.org/2000/svg">
<rect x="0.5" y="21.1" width="24" height="2" rx="1" fill="#4C526A"/>
<path fill-rule="evenodd" clip-rule="evenodd" d="M13.5 1.09998C13.5 0.547691 13.0523 0.0999756 12.5 0.0999756C11.9477 0.0999756 11.5 0.547691 11.5 1.09998V13.9257L6.15081 9.34072C5.73148 8.9813 5.10018 9.02986 4.74076 9.44918C4.38134 9.86851 4.4299 10.4998 4.84923 10.8592L11.5889 16.6361C12.1132 17.0855 12.8868 17.0855 13.4111 16.6361L20.1508 10.8592C20.5701 10.4998 20.6187 9.86851 20.2593 9.44918C19.8999 9.02986 19.2686 8.9813 18.8492 9.34072L13.5 13.9258V1.09998Z" fill="#4C526A"/>
</svg>
