<svg width="24" height="16" viewBox="0 0 24 16" fill="none" xmlns="http://www.w3.org/2000/svg">
<path fill-rule="evenodd" clip-rule="evenodd" d="M9.82929 2H23C23.5523 2 24 2.44772 24 3C24 3.55228 23.5523 4 23 4H9.82929C9.41746 5.16519 8.30622 6 7 6C5.69378 6 4.58254 5.16519 4.17071 4H1C0.447716 4 0 3.55228 0 3C0 2.44772 0.447715 2 1 2H4.17071C4.58254 0.834808 5.69378 0 7 0C8.30622 0 9.41746 0.834808 9.82929 2Z" fill="#4C526A"/>
<path fill-rule="evenodd" clip-rule="evenodd" d="M14.1707 12H1C0.447716 12 0 12.4477 0 13C0 13.5523 0.447716 14 1 14H14.1707C14.5825 15.1652 15.6938 16 17 16C18.3062 16 19.4175 15.1652 19.8293 14H23C23.5523 14 24 13.5523 24 13C24 12.4477 23.5523 12 23 12H19.8293C19.4175 10.8348 18.3062 10 17 10C15.6938 10 14.5825 10.8348 14.1707 12Z" fill="#4C526A"/>
</svg>
