<svg width="24" height="23" viewBox="0 0 24 23" fill="red" xmlns="http://www.w3.org/2000/svg">
    <path d="M3.01438 13.2892L3.01445 13.2892L3.022 13.2996C4.23031 14.9682 5.68532 16.4209 7.19634 17.7077L7.21329 17.7222L7.22959 17.7373C7.91961 18.3801 9.05028 19.3493 10.1078 20.1628C10.6373 20.5702 11.1325 20.9262 11.5355 21.1801C11.7302 21.3027 11.8888 21.3922 12.0096 21.4508C12.1442 21.3862 12.3258 21.2741 12.5599 21.098C12.7287 20.9711 12.8963 20.8336 13.0727 20.6887L13.0855 20.6782C13.2475 20.545 13.4262 20.3983 13.5946 20.2742C16.9223 17.7424 20.3382 14.7792 22.0494 11.6251C23.4556 8.62119 23.3553 5.13722 21.3984 3.06299C18.7489 0.700796 14.7835 1.18535 12.7893 3.64288L11.9924 4.62498L11.2206 3.62303C10.6874 2.93088 10.038 2.38743 9.2644 1.98606C6.01799 0.712163 2.74532 2.0299 1.40039 4.86754C0.456938 7.85568 1.25825 10.9287 3.01438 13.2892Z" stroke="#4C526A" stroke-width="2"/>
    </svg>
    